<?xml version="1.0" standalone="no"?>
<!DOCTYPE svg PUBLIC "-//W3C//DTD SVG 20010904//EN"
 "http://www.w3.org/TR/2001/REC-SVG-20010904/DTD/svg10.dtd">
<svg version="1.0" xmlns="http://www.w3.org/2000/svg"
 width="32.000000pt" height="32.000000pt" viewBox="0 0 32.000000 32.000000"
 preserveAspectRatio="xMidYMid meet">

<g transform="translate(0.000000,32.000000) scale(0.100000,-0.100000)"
fill="#000000" stroke="none">
<path d="M12 308 c-17 -17 -17 -279 0 -296 17 -17 279 -17 296 0 17 17 17 279
0 296 -17 17 -279 17 -296 0z m282 -14 c23 -23 23 -245 0 -268 -23 -23 -245
-23 -268 0 -23 23 -23 245 0 268 23 23 245 23 268 0z"/>
<path d="M203 283 c9 -2 25 -2 35 0 9 3 1 5 -18 5 -19 0 -27 -2 -17 -5z"/>
<path d="M54 256 c-10 -26 4 -48 28 -44 33 4 33 52 0 56 -13 2 -25 -3 -28 -12z
m42 -7 c10 -17 -13 -36 -27 -22 -12 12 -4 33 11 33 5 0 12 -5 16 -11z"/>
<path d="M51 168 c1 -30 2 -31 8 -8 4 14 15 26 24 28 15 3 17 -6 17 -62 0 -51
-3 -66 -15 -66 -7 0 -19 8 -24 18 -9 15 -10 15 -11 -5 0 -19 5 -23 30 -23 l30
0 0 75 0 75 -30 0 c-27 0 -30 -3 -29 -32z"/>
<path d="M122 127 c3 -70 4 -72 30 -75 26 -3 27 -1 30 45 2 35 7 48 18 48 11
0 16 -13 18 -47 3 -43 5 -48 28 -48 23 0 24 3 24 56 0 84 -8 93 -85 93 l-66 0
3 -72z m50 52 c3 -8 10 -8 26 2 37 23 56 2 60 -65 2 -44 0 -56 -12 -56 -11 0
-16 13 -18 48 -3 43 -5 47 -28 47 -23 0 -25 -4 -28 -47 -2 -34 -7 -48 -18 -48
-11 0 -14 15 -14 65 0 49 3 65 14 65 8 0 16 -5 18 -11z"/>
</g>
</svg>
